<mxfile host="app.diagrams.net" modified="2024-04-05T08:39:13.880Z" agent="Mozilla/5.0 (Macintosh; Intel Mac OS X 10_15_7) AppleWebKit/537.36 (KHTML, like Gecko) Chrome/116.0.0.0 Safari/537.36" etag="NaaWDpzlfROKLgvU1FLN" version="23.0.1" type="github">
  <diagram name="Page-1" id="-bIQsAHUNgV2bMWwg6ki">
    <mxGraphModel dx="2418" dy="1071" grid="1" gridSize="10" guides="1" tooltips="1" connect="1" arrows="1" fold="1" page="1" pageScale="1" pageWidth="827" pageHeight="1169" math="0" shadow="0">
      <root>
        <mxCell id="0" />
        <mxCell id="1" parent="0" />
        <mxCell id="p1qlXL6KZsgeVCq2Q6EG-1" value="" style="endArrow=none;dashed=1;html=1;dashPattern=1 3;strokeWidth=3;rounded=0;fillColor=#d5e8d4;strokeColor=#82b366;" edge="1" parent="1">
          <mxGeometry width="50" height="50" relative="1" as="geometry">
            <mxPoint x="400" y="800" as="sourcePoint" />
            <mxPoint x="400" y="170" as="targetPoint" />
          </mxGeometry>
        </mxCell>
        <mxCell id="p1qlXL6KZsgeVCq2Q6EG-4" value="" style="group" vertex="1" connectable="0" parent="1">
          <mxGeometry x="115" y="190" width="50" height="90" as="geometry" />
        </mxCell>
        <mxCell id="p1qlXL6KZsgeVCq2Q6EG-2" value="" style="shape=actor;whiteSpace=wrap;html=1;" vertex="1" parent="p1qlXL6KZsgeVCq2Q6EG-4">
          <mxGeometry x="5" width="40" height="60" as="geometry" />
        </mxCell>
        <mxCell id="p1qlXL6KZsgeVCq2Q6EG-3" value="Client" style="text;html=1;align=center;verticalAlign=middle;resizable=0;points=[];autosize=1;strokeColor=none;fillColor=none;" vertex="1" parent="p1qlXL6KZsgeVCq2Q6EG-4">
          <mxGeometry y="60" width="50" height="30" as="geometry" />
        </mxCell>
        <mxCell id="p1qlXL6KZsgeVCq2Q6EG-5" value="Server" style="rounded=1;whiteSpace=wrap;html=1;" vertex="1" parent="1">
          <mxGeometry x="660" y="200" width="90" height="60" as="geometry" />
        </mxCell>
        <mxCell id="p1qlXL6KZsgeVCq2Q6EG-7" value="" style="endArrow=classic;html=1;rounded=0;entryX=0;entryY=0.5;entryDx=0;entryDy=0;" edge="1" parent="1" target="p1qlXL6KZsgeVCq2Q6EG-5">
          <mxGeometry width="50" height="50" relative="1" as="geometry">
            <mxPoint x="170" y="230" as="sourcePoint" />
            <mxPoint x="610" y="230" as="targetPoint" />
          </mxGeometry>
        </mxCell>
        <mxCell id="p1qlXL6KZsgeVCq2Q6EG-8" value="SYN Packet" style="edgeLabel;html=1;align=center;verticalAlign=middle;resizable=0;points=[];" vertex="1" connectable="0" parent="p1qlXL6KZsgeVCq2Q6EG-7">
          <mxGeometry x="-0.8009" y="-2" relative="1" as="geometry">
            <mxPoint x="171" y="-2" as="offset" />
          </mxGeometry>
        </mxCell>
        <mxCell id="p1qlXL6KZsgeVCq2Q6EG-9" value="" style="group" vertex="1" connectable="0" parent="1">
          <mxGeometry x="120" y="370" width="50" height="90" as="geometry" />
        </mxCell>
        <mxCell id="p1qlXL6KZsgeVCq2Q6EG-10" value="" style="shape=actor;whiteSpace=wrap;html=1;" vertex="1" parent="p1qlXL6KZsgeVCq2Q6EG-9">
          <mxGeometry x="5" width="40" height="60" as="geometry" />
        </mxCell>
        <mxCell id="p1qlXL6KZsgeVCq2Q6EG-11" value="Client" style="text;html=1;align=center;verticalAlign=middle;resizable=0;points=[];autosize=1;strokeColor=none;fillColor=none;" vertex="1" parent="p1qlXL6KZsgeVCq2Q6EG-9">
          <mxGeometry y="60" width="50" height="30" as="geometry" />
        </mxCell>
        <mxCell id="p1qlXL6KZsgeVCq2Q6EG-12" value="" style="endArrow=classic;html=1;rounded=0;exitX=0;exitY=0.75;exitDx=0;exitDy=0;" edge="1" parent="1" source="p1qlXL6KZsgeVCq2Q6EG-5">
          <mxGeometry width="50" height="50" relative="1" as="geometry">
            <mxPoint x="510" y="640" as="sourcePoint" />
            <mxPoint x="170" y="410" as="targetPoint" />
          </mxGeometry>
        </mxCell>
        <mxCell id="p1qlXL6KZsgeVCq2Q6EG-13" value="SYN + ACK&amp;nbsp;" style="edgeLabel;html=1;align=center;verticalAlign=middle;resizable=0;points=[];" vertex="1" connectable="0" parent="p1qlXL6KZsgeVCq2Q6EG-12">
          <mxGeometry x="-0.2574" y="-4" relative="1" as="geometry">
            <mxPoint as="offset" />
          </mxGeometry>
        </mxCell>
        <mxCell id="p1qlXL6KZsgeVCq2Q6EG-14" value="initial sequence number" style="text;html=1;align=center;verticalAlign=middle;resizable=0;points=[];autosize=1;strokeColor=none;fillColor=none;" vertex="1" parent="1">
          <mxGeometry x="414" y="300" width="150" height="30" as="geometry" />
        </mxCell>
        <mxCell id="p1qlXL6KZsgeVCq2Q6EG-15" value="Server" style="rounded=1;whiteSpace=wrap;html=1;" vertex="1" parent="1">
          <mxGeometry x="670" y="385" width="90" height="60" as="geometry" />
        </mxCell>
        <mxCell id="p1qlXL6KZsgeVCq2Q6EG-16" value="" style="endArrow=classic;html=1;rounded=0;exitX=1;exitY=0.75;exitDx=0;exitDy=0;entryX=0;entryY=0.5;entryDx=0;entryDy=0;" edge="1" parent="1" source="p1qlXL6KZsgeVCq2Q6EG-10" target="p1qlXL6KZsgeVCq2Q6EG-15">
          <mxGeometry width="50" height="50" relative="1" as="geometry">
            <mxPoint x="510" y="640" as="sourcePoint" />
            <mxPoint x="560" y="590" as="targetPoint" />
          </mxGeometry>
        </mxCell>
        <mxCell id="p1qlXL6KZsgeVCq2Q6EG-17" value="ACK" style="edgeLabel;html=1;align=center;verticalAlign=middle;resizable=0;points=[];" vertex="1" connectable="0" parent="p1qlXL6KZsgeVCq2Q6EG-16">
          <mxGeometry x="-0.0504" y="1" relative="1" as="geometry">
            <mxPoint as="offset" />
          </mxGeometry>
        </mxCell>
        <mxCell id="p1qlXL6KZsgeVCq2Q6EG-18" value="1. Client -&amp;gt; server, Synchronise pack, request for connection&lt;br&gt;&lt;br&gt;2. Server -&amp;gt; client, synchronise packâž• acknowledgement (of the request), also provide the initial sequence number&lt;br&gt;&lt;br&gt;3. client -&amp;gt; server, acknowledge the sequence number and establish connection" style="rounded=1;whiteSpace=wrap;html=1;" vertex="1" parent="1">
          <mxGeometry x="-40" y="200" width="130" height="240" as="geometry" />
        </mxCell>
        <mxCell id="p1qlXL6KZsgeVCq2Q6EG-39" value="A" style="rounded=1;whiteSpace=wrap;html=1;" vertex="1" parent="1">
          <mxGeometry x="-80" y="570" width="70" height="70" as="geometry" />
        </mxCell>
        <mxCell id="p1qlXL6KZsgeVCq2Q6EG-49" style="edgeStyle=orthogonalEdgeStyle;shape=connector;rounded=0;orthogonalLoop=1;jettySize=auto;html=1;dashed=1;labelBackgroundColor=default;strokeColor=default;strokeWidth=2;align=center;verticalAlign=middle;fontFamily=Helvetica;fontSize=11;fontColor=default;endArrow=none;endFill=0;dashPattern=1 2;jumpSize=6;curved=0;" edge="1" parent="1" source="p1qlXL6KZsgeVCq2Q6EG-40" target="p1qlXL6KZsgeVCq2Q6EG-43">
          <mxGeometry relative="1" as="geometry" />
        </mxCell>
        <mxCell id="p1qlXL6KZsgeVCq2Q6EG-40" value="B" style="rounded=1;whiteSpace=wrap;html=1;" vertex="1" parent="1">
          <mxGeometry x="-80" y="660" width="70" height="70" as="geometry" />
        </mxCell>
        <mxCell id="p1qlXL6KZsgeVCq2Q6EG-51" value="" style="edgeStyle=orthogonalEdgeStyle;shape=connector;rounded=0;orthogonalLoop=1;jettySize=auto;html=1;dashed=1;labelBackgroundColor=default;strokeColor=default;strokeWidth=2;align=center;verticalAlign=middle;fontFamily=Helvetica;fontSize=11;fontColor=default;endArrow=none;endFill=0;dashPattern=1 1;" edge="1" parent="1" source="p1qlXL6KZsgeVCq2Q6EG-41" target="p1qlXL6KZsgeVCq2Q6EG-44">
          <mxGeometry relative="1" as="geometry" />
        </mxCell>
        <mxCell id="p1qlXL6KZsgeVCq2Q6EG-41" value="C" style="rounded=1;whiteSpace=wrap;html=1;" vertex="1" parent="1">
          <mxGeometry x="-80" y="760" width="70" height="70" as="geometry" />
        </mxCell>
        <mxCell id="p1qlXL6KZsgeVCq2Q6EG-42" value="" style="shape=waypoint;sketch=0;fillStyle=solid;size=6;pointerEvents=1;points=[];fillColor=none;resizable=0;rotatable=0;perimeter=centerPerimeter;snapToPoint=1;" vertex="1" parent="1">
          <mxGeometry x="-150" y="595" width="20" height="20" as="geometry" />
        </mxCell>
        <mxCell id="p1qlXL6KZsgeVCq2Q6EG-55" value="" style="edgeStyle=orthogonalEdgeStyle;shape=connector;curved=0;rounded=0;jumpSize=6;orthogonalLoop=1;jettySize=auto;html=1;dashed=1;dashPattern=1 2;labelBackgroundColor=default;strokeColor=default;strokeWidth=2;align=center;verticalAlign=middle;fontFamily=Helvetica;fontSize=11;fontColor=default;endArrow=none;endFill=0;" edge="1" parent="1" source="p1qlXL6KZsgeVCq2Q6EG-43" target="p1qlXL6KZsgeVCq2Q6EG-42">
          <mxGeometry relative="1" as="geometry" />
        </mxCell>
        <mxCell id="p1qlXL6KZsgeVCq2Q6EG-57" style="edgeStyle=orthogonalEdgeStyle;shape=connector;curved=0;rounded=0;jumpSize=6;orthogonalLoop=1;jettySize=auto;html=1;dashed=1;dashPattern=1 2;labelBackgroundColor=default;strokeColor=default;strokeWidth=2;align=center;verticalAlign=middle;fontFamily=Helvetica;fontSize=11;fontColor=default;endArrow=classic;endFill=1;" edge="1" parent="1" source="p1qlXL6KZsgeVCq2Q6EG-43" target="p1qlXL6KZsgeVCq2Q6EG-56">
          <mxGeometry relative="1" as="geometry" />
        </mxCell>
        <mxCell id="p1qlXL6KZsgeVCq2Q6EG-43" value="" style="shape=waypoint;sketch=0;fillStyle=solid;size=6;pointerEvents=1;points=[];fillColor=none;resizable=0;rotatable=0;perimeter=centerPerimeter;snapToPoint=1;" vertex="1" parent="1">
          <mxGeometry x="-150" y="685" width="20" height="20" as="geometry" />
        </mxCell>
        <mxCell id="p1qlXL6KZsgeVCq2Q6EG-44" value="" style="shape=waypoint;sketch=0;fillStyle=solid;size=6;pointerEvents=1;points=[];fillColor=none;resizable=0;rotatable=0;perimeter=centerPerimeter;snapToPoint=1;" vertex="1" parent="1">
          <mxGeometry x="-150" y="785" width="20" height="20" as="geometry" />
        </mxCell>
        <mxCell id="p1qlXL6KZsgeVCq2Q6EG-52" style="edgeStyle=orthogonalEdgeStyle;shape=connector;curved=0;rounded=0;jumpSize=6;orthogonalLoop=1;jettySize=auto;html=1;entryX=0.85;entryY=0.45;entryDx=0;entryDy=0;entryPerimeter=0;dashed=1;labelBackgroundColor=default;strokeColor=default;strokeWidth=2;align=center;verticalAlign=middle;fontFamily=Helvetica;fontSize=11;fontColor=default;endArrow=none;endFill=0;" edge="1" parent="1" source="p1qlXL6KZsgeVCq2Q6EG-39" target="p1qlXL6KZsgeVCq2Q6EG-42">
          <mxGeometry relative="1" as="geometry" />
        </mxCell>
        <mxCell id="p1qlXL6KZsgeVCq2Q6EG-53" style="edgeStyle=orthogonalEdgeStyle;shape=connector;curved=0;rounded=0;jumpSize=6;orthogonalLoop=1;jettySize=auto;html=1;entryX=0.55;entryY=0.2;entryDx=0;entryDy=0;entryPerimeter=0;dashed=1;dashPattern=1 2;labelBackgroundColor=default;strokeColor=default;strokeWidth=2;align=center;verticalAlign=middle;fontFamily=Helvetica;fontSize=11;fontColor=default;endArrow=none;endFill=0;" edge="1" parent="1" source="p1qlXL6KZsgeVCq2Q6EG-44" target="p1qlXL6KZsgeVCq2Q6EG-43">
          <mxGeometry relative="1" as="geometry" />
        </mxCell>
        <mxCell id="p1qlXL6KZsgeVCq2Q6EG-56" value="" style="rounded=1;whiteSpace=wrap;html=1;fontFamily=Helvetica;fontSize=11;fontColor=default;" vertex="1" parent="1">
          <mxGeometry x="-380" y="660" width="110" height="70" as="geometry" />
        </mxCell>
      </root>
    </mxGraphModel>
  </diagram>
</mxfile>
